<svg xmlns="http://www.w3.org/2000/svg" width="201" height="44" fill="none" viewBox="0 0 201 44">
    <g fill="#fff" clip-path="url(#clip0)">
        <path d="M2.44 12.205c.53 0 .912-.412.912-.912 0-.529-.382-.911-.911-.911-.5 0-.882.412-.882.911 0 .5.382.912.882.912zM4.704 12.205c.5 0 .882-.412.882-.912 0-.529-.382-.911-.882-.911s-.882.412-.882.911c-.03.5.382.912.882.912zM16.407 21.643c0-.53-.383-.912-.882-.912-.5 0-.882.412-.882.912 0 .53.382.911.882.911.5.03.882-.411.882-.911zM14.172 21.643c0-.53-.382-.912-.911-.912-.5 0-.882.412-.882.912 0 .53.382.911.882.911.53.03.912-.411.912-.911zM29.932 21.643c0-.53-.382-.912-.911-.912-.5 0-.882.412-.882.912 0 .53.382.911.882.911.529.03.911-.411.911-.911zM32.166 21.643c0-.53-.382-.912-.882-.912s-.882.412-.882.912c0 .53.383.911.882.911.5.03.883-.411.883-.911zM51.632 12.205c.5 0 .882-.412.882-.912 0-.529-.382-.911-.882-.911s-.882.412-.882.911c0 .5.382.912.882.912zM49.397 12.205c.53 0 .912-.412.912-.912 0-.529-.383-.911-.912-.911-.5 0-.882.412-.882.911-.03.5.382.912.882.912z"/>
        <path d="M54.278 19.614H57.6V10.03h-1.794v8.145H51.66v-4.94h-1.793v4.969H45.78c-.559 0-1.059-.147-1.5-.353.912-.764 1.382-1.705 1.382-2.617 0-1.176-.852-2.235-2.852-2.235-1.352 0-2.852.736-3.91 1.5l-.147 1.264c1.176.324 1.97 1.177 2.852 1.97-.823.265-1.882.412-3.176.412h-1.617V10.03H35.02v8.145h-2.794v-4.94h-1.793v4.969H26.962v-1.911c0-1.97-.94-3.235-3.146-3.235-2.293 0-3.47 1.588-3.47 3.529 0 1.235-.352 1.617-1.029 1.617H16.465v-4.97h-1.793v4.97H6.585v-4.675s-1.235-.47-2.823-.47c-2.5 0-3.587 1.617-3.587 3.41 0 1.94 1 3.146 3.646 3.146H19.258c.824 0 1.441-.353 1.794-1.058.412.676 1.206 1.058 2.793 1.058H38.312c1.823 0 3.322-.323 4.469-.852.735.5 1.617.852 2.793.852h8.704zM4.85 18.203h-.882c-1.412 0-2.029-.676-2.029-1.911 0-1.059.588-1.823 1.617-1.823.765 0 1.294.235 1.294.235v3.499zm20.347 0h-1.176c-1.412 0-1.912-.588-1.912-1.794 0-1.146.589-1.94 1.588-1.94 1 0 1.5.588 1.5 2.028v1.706zm17.877-1.176c-.823-.706-1.588-1.5-2.5-1.882.5-.323 1.324-.823 2.059-.823.882 0 1.294.5 1.294 1.146 0 .559-.294 1.088-.853 1.559zM61.659 10.029h-1.794v9.585h1.794V10.03zM75.977 22.849v-3.235h6.939v-6.38h-1.794v4.97H76.006v-4.676s-1.235-.47-2.852-.47c-2.5 0-3.587 1.617-3.587 3.41 0 1.941.97 3.146 3.617 3.146h1.058v1.912s-1.176.088-2.382.088c-3.38 0-4.44-.853-4.44-2.94 0-.794.148-1.706.383-2.558l-1.853.352c-.205.794-.323 1.647-.323 2.411 0 2.823 1.676 4.146 5.969 4.146 1.764-.03 4.38-.176 4.38-.176zm-2.617-4.646c-1.411 0-2.029-.676-2.029-1.911 0-1.059.618-1.823 1.617-1.823.765 0 1.265.235 1.265.235v3.5h-.853zM71.862 12.205c.53 0 .912-.412.912-.912 0-.529-.383-.911-.912-.911-.5 0-.882.412-.882.911-.03.5.353.912.882.912zM74.097 12.205c.5 0 .882-.412.882-.912 0-.529-.382-.911-.882-.911s-.882.412-.882.911c0 .5.382.912.882.912zM81.094 21.643c0 .53.382.911.882.911s.882-.411.882-.911c0-.53-.382-.912-.882-.912s-.882.412-.882.912z"/>
        <path d="M78.83 21.643c0 .53.382.911.882.911.53 0 .912-.411.912-.911 0-.53-.383-.912-.912-.912-.47 0-.882.412-.882.912zM95.03 19.614h10.674c.147-1.058.176-2.176.176-3.264 0-2.028-.882-3.293-2.764-3.293-1.44 0-2.822.912-3.499 2.529.118-.647.147-1.412.147-2v-3.528h-1.793v8.145H90.826v-4.675s-1.235-.47-2.823-.47c-2.5 0-3.587 1.616-3.587 3.41 0 1.94 1 3.146 3.646 3.146h1.059v.206c0 1.264-.941 1.793-2.353 1.793-1.058 0-2.117-.235-2.117-.235l-.117 1.47s1.058.177 2.058.177c3.028 0 4.263-1.53 4.263-3.381v-.03h4.176zm7.734-5.116c.97 0 1.293.764 1.293 2.058 0 .5-.029 1.117-.058 1.647h-4.235c.353-1.911 1.559-3.705 3-3.705zm-13.702 3.705h-.882c-1.412 0-2.03-.677-2.03-1.911 0-1.059.589-1.823 1.618-1.823.764 0 1.294.235 1.294.235v3.499zM114.024 12.205c.5 0 .882-.412.882-.912 0-.529-.382-.911-.882-.911s-.882.412-.882.911c-.029.5.382.912.882.912zM111.761 12.205c.529 0 .911-.412.911-.912 0-.529-.382-.911-.911-.911-.5 0-.882.412-.882.911 0 .5.382.912.882.912zM141.193 19.614h1.676c.823 0 1.44-.352 1.793-1.058.412.676 1.206 1.058 2.794 1.058h3.087v-3.322c0-1.97-.941-3.234-3.146-3.234-2.294 0-3.47 1.587-3.47 3.528 0 1.235-.353 1.617-1.029 1.617h-2.852v-4.969h-1.794v4.97H133.812c.03-.618.059-1.236.059-1.853 0-2.029-.882-3.293-2.764-3.293-1.44 0-2.822.911-3.499 2.528.118-.647.147-1.411.147-2v-.352h-1.793v4.97H115.906v-4.676s-1.235-.47-2.823-.47c-2.499 0-3.587 1.617-3.587 3.41 0 1.941 1 3.146 3.646 3.146H141.193zm6.086-5.145c1 0 1.5.588 1.5 2.029v1.705h-1.176c-1.412 0-1.912-.588-1.912-1.793.03-1.147.618-1.941 1.588-1.941zm-33.108 3.734h-.882c-1.411 0-2.029-.676-2.029-1.911 0-1.059.588-1.823 1.617-1.823.765 0 1.294.235 1.294.235v3.5zm17.848 0h-4.234c.353-1.911 1.558-3.705 2.999-3.705.97 0 1.294.765 1.294 2.059 0 .47-.03 1.088-.059 1.646zM139.166 12.087c.529 0 .94-.412.94-.941 0-.53-.411-.94-.94-.94-.53 0-.941.41-.941.94s.441.94.941.94zM6.998 24.583H0v1.411h2.734v7.233h1.53v-7.233h2.734v-1.411z"/>
        <path d="M10.85 30.405c0 1-.618 1.617-1.47 1.617-.883 0-1.382-.558-1.382-1.588V26.7h-1.5v4.146c0 1.529.853 2.5 2.323 2.5 1 0 1.617-.53 2.029-1.147v1h1.5V26.7h-1.5v3.705zM21.112 26.7l-1.323 4.47-1.44-4.47h-1.294l-1.441 4.47-1.294-4.47h-1.529l2.088 6.586h1.352l1.47-4.469 1.441 4.47h1.353l2.117-6.587h-1.5zM25.52 26.642c-1.028 0-1.734.205-2.469.529l.382 1.176c.588-.235 1.147-.412 1.853-.412 1.058 0 1.617.5 1.617 1.412v.147c-.5-.147-1.03-.265-1.764-.265-1.588 0-2.676.676-2.676 2.088v.03c0 1.293 1.088 1.998 2.293 1.998 1 0 1.676-.411 2.117-.94v.823h1.47v-3.852c0-.853-.235-1.529-.705-2-.412-.5-1.147-.734-2.117-.734zm1.442 4.234c0 .823-.765 1.382-1.735 1.382-.706 0-1.265-.353-1.265-1v-.03c0-.676.56-1.087 1.53-1.087.587 0 1.087.117 1.47.264v.47zM30.99 24.29h-1.617v1.41h1.617v-1.41zM30.933 26.7h-1.5v6.528h1.5V26.7zM36.93 27.73c-.471-.618-1.148-1.148-2.236-1.148-1.558 0-3.028 1.235-3.028 3.382v.03c0 2.146 1.5 3.38 3.028 3.38 1.06 0 1.735-.529 2.235-1.234v3.058h1.5V26.7h-1.5v1.03zm.029 2.263c0 1.235-.883 2.088-1.882 2.088-1 0-1.882-.823-1.882-2.088v-.03c0-1.293.853-2.087 1.882-2.087 1 0 1.882.823 1.882 2.117zM45.34 26.582c-1.853 0-3.176 1.53-3.176 3.382v.03c0 1.999 1.47 3.38 3.352 3.38 1.206 0 2.058-.47 2.676-1.234l-.882-.765c-.53.5-1.03.765-1.765.765-.97 0-1.705-.588-1.881-1.647h4.792c0-.147.03-.294.03-.412-.03-1.881-1.059-3.498-3.146-3.498zm-1.706 2.94c.147-.999.765-1.704 1.676-1.704 1 0 1.559.764 1.647 1.705h-3.323zM52.837 28.7h-3.646v1.47h3.646V28.7zM55.63 24.583h-1.528v8.645h6.057v-1.382H55.63v-7.263zM63.511 26.582c-1.852 0-3.175 1.53-3.175 3.382v.03c0 1.999 1.47 3.38 3.352 3.38 1.205 0 2.058-.47 2.676-1.234l-.883-.765c-.529.5-1.029.765-1.764.765-.97 0-1.705-.588-1.881-1.647h4.792c0-.147.03-.294.03-.412-.03-1.881-1.088-3.498-3.147-3.498zm-1.705 2.94c.147-.999.765-1.704 1.676-1.704 1 0 1.558.764 1.647 1.705h-3.323zM69.892 26.642c-1.03 0-1.735.205-2.47.529l.382 1.176c.588-.235 1.147-.412 1.853-.412 1.058 0 1.617.5 1.617 1.412v.147c-.5-.147-1.03-.265-1.764-.265-1.588 0-2.676.676-2.676 2.088v.03c0 1.293 1.088 1.998 2.293 1.998 1 0 1.676-.411 2.118-.94v.823h1.47v-3.852c0-.853-.236-1.529-.706-2-.412-.5-1.147-.734-2.117-.734zm1.44 4.234c0 .823-.764 1.382-1.734 1.382-.706 0-1.264-.353-1.264-1v-.03c0-.676.558-1.087 1.528-1.087.589 0 1.088.117 1.47.264v.47zM75.271 28.17V26.7h-1.5v6.528h1.5v-2.47c0-1.735.912-2.588 2.235-2.588h.088v-1.588c-1.176-.029-1.911.618-2.323 1.588zM81.505 26.582c-1 0-1.617.53-2.029 1.147v-1h-1.5v6.528h1.5v-3.675c0-1 .618-1.617 1.47-1.617.882 0 1.382.587 1.382 1.587v3.705h1.5v-4.175c-.03-1.53-.882-2.5-2.323-2.5zM86.416 24.29h-1.617v1.41h1.617v-1.41zM86.357 26.7h-1.5v6.528h1.5V26.7zM90.974 26.582c-1 0-1.618.53-2.03 1.147v-1h-1.499v6.528h1.5v-3.675c0-1 .617-1.617 1.47-1.617.882 0 1.382.587 1.382 1.587v3.705h1.5v-4.175c0-1.53-.853-2.5-2.323-2.5zM99.207 27.7c-.5-.618-1.177-1.117-2.294-1.117-1.529 0-2.97 1.146-2.97 3.057v.03c0 1.911 1.441 3.058 2.97 3.058 1.088 0 1.764-.5 2.294-1.206v.5c0 1.294-.736 2-2.059 2-.882 0-1.617-.265-2.322-.677l-.56 1.118c.853.5 1.853.764 2.912.764 1.176 0 2.087-.294 2.675-.882.53-.53.824-1.353.824-2.47V26.7h-1.5v1h.03zm.029 1.94c0 1.059-.882 1.794-1.911 1.794-1.03 0-1.853-.735-1.853-1.794v-.029c0-1.088.824-1.794 1.853-1.794 1.029.03 1.91.735 1.91 1.823zM108.38 24.583h-3.411v8.645h1.529v-2.764h1.705c1.911 0 3.44-1 3.44-2.94v-.03c0-1.764-1.264-2.911-3.263-2.911zm1.734 2.97c0 .911-.705 1.529-1.852 1.529h-1.764v-3.117h1.764c1.117 0 1.852.53 1.852 1.588zM113.703 24.23h-1.5v8.998h1.5V24.23zM117.408 26.642c-1.03 0-1.735.205-2.47.529l.382 1.176c.588-.235 1.147-.412 1.852-.412 1.059 0 1.618.5 1.618 1.412v.147c-.5-.147-1.03-.265-1.765-.265-1.587 0-2.675.676-2.675 2.088v.03c0 1.293 1.088 1.998 2.293 1.998 1 0 1.676-.411 2.117-.94v.823h1.47v-3.852c0-.853-.235-1.529-.705-2-.412-.5-1.147-.734-2.117-.734zm1.44 4.234c0 .823-.764 1.382-1.734 1.382-.706 0-1.265-.353-1.265-1v-.03c0-.676.559-1.087 1.529-1.087.588 0 1.088.117 1.47.264v.47zM122.934 24.936h-1.499v1.794h-.824v1.264h.824v3.44c0 1.44.764 1.911 1.881 1.911.559 0 .971-.117 1.353-.323v-1.235c-.294.147-.588.235-.912.235-.499 0-.793-.235-.793-.823v-3.205h1.764V26.7h-1.764v-1.764h-.03zM128.962 26.76h-1.735v-.354c0-.676.294-1 .853-1 .323 0 .588.06.882.148v-1.265c-.324-.088-.676-.176-1.206-.176-.647 0-1.117.176-1.47.529-.353.353-.529.882-.529 1.617v.47h-.823v1.265h.823v5.234h1.499v-5.234h1.706v-1.235zM132.315 26.582c-1.999 0-3.469 1.53-3.469 3.411v.03c0 1.852 1.47 3.381 3.44 3.381 1.999 0 3.499-1.529 3.499-3.381v-.03c0-1.91-1.47-3.41-3.47-3.41zm1.97 3.44c0 1.118-.764 2.059-1.97 2.059-1.146 0-1.999-.941-1.999-2.088v-.03c0-1.146.764-2.057 1.97-2.057 1.176-.03 1.999.94 1.999 2.117zM137.99 28.17V26.7h-1.5v6.528h1.5v-2.47c0-1.735.911-2.588 2.234-2.588h.089v-1.588c-1.176-.029-1.912.618-2.323 1.588zM148.309 26.582c-1 0-1.676.471-2.205 1.147-.353-.676-1-1.146-1.941-1.146-1 0-1.558.529-1.999 1.117v-1h-1.5v6.528h1.5v-3.676c0-1 .558-1.617 1.382-1.617.823 0 1.323.559 1.323 1.588v3.705h1.499v-3.676c0-1.058.588-1.617 1.382-1.617.853 0 1.323.559 1.323 1.588v3.705h1.5v-4.146c.029-1.617-.853-2.5-2.264-2.5zM168.156 12.91c1.382 0 2.528-1.117 2.528-2.529v-.03c0-1.381-1.117-2.528-2.528-2.528-1.382 0-2.529 1.118-2.529 2.529v.03c0 1.381 1.117 2.528 2.529 2.528zM175.624 20.467c1.382 0 2.529-1.118 2.529-2.529v-7.733c0-1.382-1.117-2.529-2.529-2.529-1.411 0-2.528 1.118-2.528 2.529v7.762c0 1.382 1.117 2.5 2.528 2.5zM160.482 20.35h7.762c1.382 0 2.529-1.118 2.529-2.53 0-1.381-1.117-2.528-2.529-2.528h-7.762c-1.382 0-2.529 1.117-2.529 2.529 0 1.411 1.117 2.528 2.529 2.528zM175.712 5.118c1.382 0 2.529-1.117 2.529-2.528 0-1.382-1.117-2.529-2.529-2.529-1.382 0-2.528 1.117-2.528 2.529v.03c0 1.381 1.146 2.498 2.528 2.498zM160.423 22.849c-1.411 0-2.528 1.117-2.528 2.528 0 1.382 1.117 2.529 2.528 2.529h.03c1.382 0 2.528-1.117 2.528-2.529-.059-1.411-1.176-2.528-2.558-2.528zM183.24 12.94c1.382 0 2.528-1.118 2.528-2.53V2.649c0-1.382-1.117-2.528-2.528-2.528-1.382 0-2.529 1.117-2.529 2.528v7.763c0 1.382 1.147 2.528 2.529 2.528zM190.679 12.851c1.412 0 2.529-1.117 2.529-2.528 0-1.382-1.117-2.53-2.529-2.53h-.029c-1.382 0-2.529 1.118-2.529 2.53.059 1.382 1.176 2.528 2.558 2.528zM183.122 20.32h7.763c1.382 0 2.528-1.118 2.528-2.53 0-1.41-1.117-2.528-2.528-2.528h-7.763c-1.382 0-2.528 1.117-2.528 2.529 0 1.411 1.146 2.529 2.528 2.529zM183.035 37.991c-1.382 0-2.529 1.117-2.529 2.529v.03c0 1.381 1.117 2.528 2.529 2.528 1.381 0 2.528-1.117 2.528-2.529v-.03c-.029-1.41-1.147-2.528-2.528-2.528zM190.591 30.2c-1.382 0-2.529 1.117-2.529 2.528v.03c0 1.381 1.118 2.528 2.529 2.528 1.382 0 2.529-1.117 2.529-2.529V32.7c-.03-1.382-1.147-2.5-2.529-2.5zM198.264 22.731h-7.763c-1.382 0-2.528 1.117-2.528 2.529 0 1.411 1.117 2.528 2.528 2.528h7.763c1.382 0 2.528-1.117 2.528-2.528 0-1.412-1.146-2.529-2.528-2.529zM198.501 15.38c-1.411 0-2.528 1.117-2.528 2.529 0 1.382 1.117 2.528 2.528 2.528h.03c1.382 0 2.528-1.117 2.528-2.528-.058-1.412-1.176-2.53-2.558-2.53zM168.214 30.405c-1.411 0-2.528 1.117-2.528 2.529 0 1.381 1.117 2.528 2.528 2.528h.03c1.382 0 2.528-1.117 2.528-2.529-.059-1.41-1.176-2.528-2.558-2.528zM175.654 30.317c-1.382 0-2.529 1.117-2.529 2.529v7.762c0 1.382 1.117 2.529 2.529 2.529 1.411 0 2.528-1.118 2.528-2.529v-7.762c0-1.412-1.146-2.53-2.528-2.53zM175.772 22.936h-7.763c-1.382 0-2.529 1.118-2.529 2.53 0 1.41 1.118 2.528 2.529 2.528h7.763c1.382 0 2.528-1.117 2.528-2.529 0-1.411-1.146-2.529-2.528-2.529zM183.093 22.613c-1.382 0-2.529 1.118-2.529 2.529v7.762c0 1.382 1.118 2.529 2.529 2.529 1.411 0 2.529-1.117 2.529-2.529v-7.762c0-1.382-1.118-2.529-2.529-2.529z"/>
    </g>
    <defs>
        <clipPath id="clip0">
            <path fill="#fff" d="M0 0H201V43.046H0z" transform="translate(0 .061)"/>
        </clipPath>
    </defs>
</svg>
