<svg xmlns="http://www.w3.org/2000/svg" width="178" height="40" fill="none" viewBox="0 0 178 40">
    <path fill="#666" d="M2.157 11.706c.468 0 .806-.364.806-.806 0-.468-.338-.806-.806-.806-.442 0-.78.364-.78.806 0 .442.338.806.78.806zM4.16 11.706c.442 0 .78-.364.78-.806 0-.468-.338-.806-.78-.806s-.78.364-.78.806c-.026.442.338.806.78.806zM14.511 20.053c0-.468-.338-.806-.78-.806s-.78.364-.78.806c0 .468.338.806.78.806.442.026.78-.364.78-.806zM12.536 20.053c0-.468-.338-.806-.807-.806-.442 0-.78.364-.78.806 0 .468.338.806.78.806.469.026.807-.364.807-.806zM26.473 20.053c0-.468-.338-.806-.806-.806-.442 0-.78.364-.78.806 0 .468.338.806.78.806.468.026.806-.364.806-.806zM28.451 20.053c0-.468-.338-.806-.78-.806s-.78.364-.78.806c0 .468.338.806.78.806.442.026.78-.364.78-.806zM45.667 11.706c.442 0 .78-.364.78-.806 0-.468-.338-.806-.78-.806s-.78.364-.78.806c0 .442.338.806.78.806zM43.692 11.706c.468 0 .806-.364.806-.806 0-.468-.338-.806-.806-.806-.443 0-.78.364-.78.806-.026.442.337.806.78.806z"/>
    <path fill="#666" d="M48.009 18.26h2.938V9.78h-1.586v7.204h-3.667v-4.37h-1.586v4.396h-3.615c-.494 0-.936-.13-1.326-.312.806-.676 1.222-1.509 1.222-2.315 0-1.04-.754-1.976-2.523-1.976-1.196 0-2.522.65-3.458 1.326l-.13 1.118c1.04.286 1.742 1.04 2.522 1.743-.728.234-1.664.364-2.808.364H32.56V9.78h-1.586v7.204h-2.471v-4.37h-1.586v4.396h-3.069v-1.69c0-1.743-.832-2.861-2.782-2.861-2.029 0-3.069 1.404-3.069 3.12 0 1.093-.312 1.43-.91 1.43H14.565v-4.394H12.98v4.395H5.827v-4.135s-1.092-.416-2.496-.416c-2.21 0-3.173 1.43-3.173 3.016 0 1.717.884 2.783 3.225 2.783h13.653c.728 0 1.274-.312 1.586-.936.364.598 1.067.936 2.47.936H33.888c1.613 0 2.94-.286 3.953-.754.65.442 1.43.754 2.471.754H48.009zM4.293 17.01h-.78c-1.248 0-1.794-.597-1.794-1.69 0-.936.52-1.612 1.43-1.612.676 0 1.144.208 1.144.208v3.095zm17.996 0h-1.04c-1.248 0-1.69-.52-1.69-1.586 0-1.014.52-1.716 1.404-1.716.884 0 1.326.52 1.326 1.794v1.509zM38.1 15.97c-.728-.623-1.404-1.326-2.21-1.664.442-.286 1.17-.728 1.82-.728.78 0 1.145.442 1.145 1.014 0 .494-.26.963-.755 1.379zM54.534 9.781h-1.587v8.478h1.587V9.781zM67.199 21.12v-2.86h6.138v-5.644H71.75v4.395h-4.525v-4.135s-1.092-.416-2.523-.416c-2.21 0-3.172 1.43-3.172 3.017 0 1.716.858 2.782 3.198 2.782h.937v1.69s-1.04.079-2.107.079c-2.99 0-3.927-.755-3.927-2.601 0-.702.13-1.508.338-2.262l-1.638.312c-.182.702-.286 1.456-.286 2.132 0 2.497 1.482 3.667 5.28 3.667 1.56-.026 3.874-.156 3.874-.156zm-2.315-4.109c-1.248 0-1.794-.598-1.794-1.69 0-.937.546-1.613 1.43-1.613.677 0 1.119.208 1.119.208v3.095h-.755zM63.557 11.706c.468 0 .806-.364.806-.806 0-.468-.338-.806-.806-.806-.442 0-.78.364-.78.806-.026.442.312.806.78.806zM65.534 11.706c.442 0 .78-.364.78-.806 0-.468-.338-.806-.78-.806s-.78.364-.78.806c0 .442.338.806.78.806zM71.725 20.053c0 .468.338.806.78.806s.78-.364.78-.806c0-.468-.338-.806-.78-.806s-.78.364-.78.806z"/>
    <path fill="#666" d="M69.72 20.053c0 .468.339.806.78.806.469 0 .807-.364.807-.806 0-.468-.338-.806-.806-.806-.416 0-.78.364-.78.806zM84.05 18.259H93.49c.13-.937.156-1.925.156-2.887 0-1.794-.78-2.913-2.444-2.913-1.275 0-2.497.806-3.095 2.237.104-.572.13-1.249.13-1.769v-3.12h-1.586v7.203H80.33v-4.135s-1.092-.416-2.496-.416c-2.21 0-3.173 1.43-3.173 3.017 0 1.716.884 2.783 3.225 2.783h.936v.181c0 1.119-.832 1.587-2.08 1.587-.937 0-1.873-.208-1.873-.208l-.104 1.3s.936.156 1.82.156c2.68 0 3.771-1.352 3.771-2.99v-.026H84.05zm6.84-4.526c.858 0 1.144.677 1.144 1.82 0 .443-.026.99-.052 1.457h-3.745c.312-1.69 1.378-3.277 2.653-3.277zM78.77 17.01h-.78c-1.248 0-1.795-.598-1.795-1.69 0-.936.52-1.613 1.43-1.613.677 0 1.145.208 1.145.208v3.095zM100.848 11.706c.442 0 .78-.364.78-.806 0-.468-.338-.806-.78-.806s-.78.364-.78.806c-.026.442.338.806.78.806zM98.849 11.706c.468 0 .806-.364.806-.806 0-.468-.338-.806-.806-.806-.443 0-.78.364-.78.806 0 .442.337.806.78.806zM124.88 18.26H126.362c.728 0 1.274-.313 1.586-.937.365.598 1.067.936 2.471.936h2.731v-2.938c0-1.743-.833-2.861-2.783-2.861-2.028 0-3.069 1.404-3.069 3.12 0 1.093-.312 1.431-.91 1.431H123.866v-4.395h-1.587v4.395H118.352c.026-.546.052-1.092.052-1.638 0-1.795-.78-2.913-2.444-2.913-1.274 0-2.497.806-3.095 2.236.104-.572.13-1.248.13-1.768v-.312h-1.586v4.395h-8.894v-4.135s-1.092-.416-2.497-.416c-2.21 0-3.172 1.43-3.172 3.017 0 1.716.884 2.782 3.224 2.782H124.88zm5.383-4.552c.884 0 1.326.52 1.326 1.795v1.508h-1.04c-1.248 0-1.69-.52-1.69-1.586.026-1.015.546-1.717 1.404-1.717zm-29.282 3.303h-.781c-1.248 0-1.794-.598-1.794-1.69 0-.937.52-1.613 1.43-1.613.677 0 1.145.208 1.145.208v3.095zm15.785 0h-3.745c.312-1.69 1.379-3.277 2.653-3.277.858 0 1.144.676 1.144 1.82 0 .417-.026.963-.052 1.457zM123.086 11.602c.468 0 .832-.364.832-.832 0-.468-.364-.832-.832-.832-.468 0-.832.364-.832.832 0 .468.39.832.832.832zM6.19 22.653H0v1.249h2.419v6.397H3.77v-6.397h2.418v-1.249z"/>
    <path fill="#666" d="M9.595 27.803c0 .884-.546 1.43-1.3 1.43-.78 0-1.223-.494-1.223-1.404v-3.303H5.746v3.667c0 1.352.754 2.21 2.055 2.21.884 0 1.43-.467 1.794-1.014v.885h1.326v-5.748H9.595v3.277zM18.672 24.526l-1.17 3.953-1.274-3.953h-1.145L13.81 28.48l-1.144-3.953h-1.352l1.846 5.826h1.196l1.3-3.953 1.275 3.953h1.196l1.872-5.826h-1.326zM22.574 24.475c-.91 0-1.535.182-2.185.468l.338 1.04c.52-.208 1.014-.364 1.639-.364.936 0 1.43.442 1.43 1.248v.13c-.442-.13-.91-.234-1.56-.234-1.405 0-2.367.598-2.367 1.846v.026c0 1.145.962 1.769 2.029 1.769.884 0 1.482-.364 1.872-.832v.728h1.3v-3.407c0-.754-.208-1.352-.624-1.768-.364-.442-1.014-.65-1.872-.65zm1.274 3.744c0 .729-.676 1.223-1.534 1.223-.625 0-1.119-.312-1.119-.884v-.026c0-.599.494-.963 1.353-.963.52 0 .962.104 1.3.234v.416zM27.41 22.395h-1.43v1.248h1.43v-1.248zM27.358 24.526H26.03V30.3h1.327v-5.774zM32.663 25.436c-.416-.546-1.014-1.014-1.977-1.014-1.378 0-2.678 1.092-2.678 2.99v.027c0 1.898 1.326 2.99 2.678 2.99.937 0 1.535-.468 1.977-1.092v2.704h1.326v-7.515h-1.326v.91zm.026 2.003c0 1.092-.78 1.846-1.665 1.846-.884 0-1.664-.728-1.664-1.846v-.026c0-1.145.754-1.847 1.665-1.847.884 0 1.664.728 1.664 1.873zM40.1 24.422c-1.639 0-2.809 1.352-2.809 2.99v.027c0 1.768 1.3 2.99 2.965 2.99 1.066 0 1.82-.416 2.366-1.092l-.78-.676c-.468.442-.91.676-1.56.676-.858 0-1.509-.52-1.665-1.456h4.24c0-.13.025-.26.025-.364-.026-1.665-.936-3.095-2.782-3.095zm-1.509 2.6c.13-.884.676-1.508 1.483-1.508.884 0 1.378.676 1.456 1.508H38.59zM46.733 26.295h-3.225v1.3h3.224v-1.3zM49.204 22.653h-1.352V30.3h5.357v-1.222h-4.005v-6.424zM56.172 24.422c-1.639 0-2.809 1.352-2.809 2.99v.027c0 1.768 1.3 2.99 2.965 2.99 1.066 0 1.82-.416 2.366-1.092l-.78-.676c-.468.442-.91.676-1.56.676-.858 0-1.508-.52-1.664-1.456h4.239c0-.13.026-.26.026-.364-.026-1.665-.963-3.095-2.783-3.095zm-1.508 2.6c.13-.884.676-1.508 1.482-1.508.884 0 1.378.676 1.456 1.508h-2.938zM61.816 24.475c-.91 0-1.534.182-2.185.468l.338 1.04c.52-.208 1.015-.364 1.639-.364.936 0 1.43.442 1.43 1.248v.13c-.442-.13-.91-.234-1.56-.234-1.404 0-2.367.598-2.367 1.846v.026c0 1.145.963 1.769 2.029 1.769.884 0 1.482-.364 1.872-.832v.728h1.3v-3.407c0-.754-.208-1.352-.624-1.768-.364-.442-1.014-.65-1.872-.65zm1.274 3.744c0 .729-.676 1.223-1.534 1.223-.624 0-1.118-.312-1.118-.884v-.026c0-.599.494-.963 1.352-.963.52 0 .962.104 1.3.234v.416zM66.574 25.826v-1.3h-1.326v5.773h1.326v-2.184c0-1.535.806-2.289 1.977-2.289h.078v-1.404c-1.04-.026-1.69.546-2.055 1.404zM72.088 24.422c-.885 0-1.43.468-1.795 1.014v-.884h-1.326v5.773h1.326v-3.25c0-.885.546-1.43 1.3-1.43.78 0 1.223.52 1.223 1.403v3.277h1.326v-3.693c-.026-1.352-.78-2.21-2.054-2.21zM76.43 22.395H75v1.248h1.43v-1.248zM76.379 24.526h-1.326V30.3h1.326v-5.774zM80.463 24.422c-.885 0-1.43.468-1.795 1.014v-.884h-1.326v5.773h1.326v-3.25c0-.885.546-1.43 1.3-1.43.78 0 1.223.52 1.223 1.403v3.277h1.326v-3.693c0-1.352-.754-2.21-2.054-2.21zM87.743 25.41c-.442-.546-1.04-.988-2.028-.988-1.353 0-2.627 1.014-2.627 2.704v.026c0 1.69 1.274 2.705 2.627 2.705.962 0 1.56-.442 2.028-1.066v.442c0 1.144-.65 1.768-1.82 1.768-.78 0-1.43-.234-2.055-.598l-.494.988c.754.443 1.638.677 2.575.677 1.04 0 1.846-.26 2.366-.78.468-.469.728-1.197.728-2.185v-4.577h-1.326v.884h.026zm.026 1.716c0 .937-.78 1.587-1.69 1.587-.91 0-1.639-.65-1.639-1.587V27.1c0-.962.728-1.586 1.639-1.586.91.026 1.69.65 1.69 1.613zM95.856 22.653H92.84V30.3h1.352v-2.444h1.509c1.69 0 3.042-.885 3.042-2.601v-.026c0-1.56-1.118-2.575-2.886-2.575zm1.535 2.627c0 .806-.624 1.352-1.639 1.352h-1.56v-2.756h1.56c.989 0 1.639.468 1.639 1.404zM100.565 22.342h-1.327v7.957h1.327v-7.957zM103.841 24.475c-.91 0-1.534.182-2.184.468l.338 1.04c.52-.208 1.014-.364 1.638-.364.936 0 1.431.442 1.431 1.248v.13c-.443-.13-.911-.234-1.561-.234-1.404 0-2.366.598-2.366 1.846v.026c0 1.145.962 1.769 2.028 1.769.884 0 1.482-.364 1.873-.832v.728h1.3v-3.407c0-.754-.208-1.352-.624-1.768-.364-.442-1.014-.65-1.873-.65zm1.275 3.744c0 .729-.677 1.223-1.535 1.223-.624 0-1.118-.312-1.118-.884v-.026c0-.599.494-.963 1.352-.963.52 0 .963.104 1.301.234v.416zM108.73 22.966h-1.326v1.586h-.728v1.118h.728v3.043c0 1.274.676 1.69 1.664 1.69.494 0 .858-.104 1.197-.286v-1.092c-.26.13-.521.208-.807.208-.442 0-.702-.208-.702-.728V25.67h1.561v-1.144h-1.561v-1.56h-.026zM114.061 24.578h-1.535v-.312c0-.598.261-.884.755-.884.286 0 .52.052.78.13v-1.119c-.286-.078-.598-.156-1.066-.156-.573 0-.989.156-1.301.468-.312.313-.468.78-.468 1.43v.417h-.728v1.118h.728v4.63h1.326v-4.63h1.509v-1.092zM117.026 24.422c-1.769 0-3.069 1.352-3.069 3.017v.026c0 1.638 1.3 2.99 3.043 2.99 1.768 0 3.094-1.352 3.094-2.99v-.026c0-1.69-1.3-3.017-3.068-3.017zm1.742 3.043c0 .988-.676 1.82-1.742 1.82-1.015 0-1.769-.832-1.769-1.846v-.026c0-1.015.676-1.82 1.743-1.82 1.04-.027 1.768.831 1.768 1.872zM122.045 25.826v-1.3h-1.326v5.773h1.326v-2.184c0-1.535.806-2.289 1.976-2.289h.078v-1.404c-1.04-.026-1.69.546-2.054 1.404zM131.174 24.422c-.885 0-1.483.416-1.951 1.014-.312-.598-.884-1.014-1.716-1.014-.884 0-1.379.468-1.769.988v-.884h-1.326v5.773h1.326v-3.25c0-.885.495-1.43 1.223-1.43.728 0 1.17.493 1.17 1.403V30.3h1.326v-3.25c0-.937.52-1.43 1.222-1.43.755 0 1.171.493 1.171 1.403V30.3h1.326v-3.667c.026-1.43-.754-2.21-2.002-2.21z"/>
    <path fill="#005CA7" d="M148.727 12.33c1.222 0 2.236-.988 2.236-2.236v-.026c0-1.223-.988-2.237-2.236-2.237-1.223 0-2.237.988-2.237 2.237v.026c0 1.222.988 2.236 2.237 2.236zM155.332 19.013c1.222 0 2.237-.989 2.237-2.237v-6.84c0-1.222-.989-2.236-2.237-2.236-1.248 0-2.236.988-2.236 2.237v6.865c0 1.222.988 2.21 2.236 2.21z"/>
    <path fill="#1CCAD8" d="M141.938 18.909h6.865c1.222 0 2.237-.989 2.237-2.237 0-1.222-.989-2.237-2.237-2.237h-6.865c-1.223 0-2.237.989-2.237 2.237 0 1.248.988 2.236 2.237 2.236zM155.41 5.438c1.223 0 2.237-.988 2.237-2.237 0-1.222-.988-2.236-2.237-2.236-1.222 0-2.236.988-2.236 2.236v.026c0 1.223 1.014 2.21 2.236 2.21zM141.887 21.12c-1.248 0-2.237.987-2.237 2.236 0 1.222.989 2.236 2.237 2.236h.026c1.222 0 2.236-.988 2.236-2.236-.052-1.249-1.04-2.237-2.262-2.237zM162.067 12.355c1.222 0 2.236-.988 2.236-2.236V3.253c0-1.222-.988-2.236-2.236-2.236-1.223 0-2.237.988-2.237 2.236v6.866c0 1.222 1.014 2.236 2.237 2.236z"/>
    <path fill="#005CA7" d="M168.647 12.277c1.249 0 2.237-.988 2.237-2.237 0-1.222-.988-2.236-2.237-2.236h-.026c-1.222 0-2.236.988-2.236 2.236.052 1.223 1.04 2.237 2.262 2.237zM161.965 18.883h6.865c1.223 0 2.237-.988 2.237-2.236 0-1.249-.988-2.237-2.237-2.237h-6.865c-1.222 0-2.236.988-2.236 2.237 0 1.248 1.014 2.236 2.236 2.236z"/>
    <path fill="#1CCAD8" d="M161.885 34.512c-1.222 0-2.237.988-2.237 2.236v.026c0 1.222.989 2.237 2.237 2.237 1.222 0 2.236-.989 2.236-2.237v-.026c-.026-1.248-1.014-2.236-2.236-2.236zM168.569 27.62c-1.223 0-2.237.988-2.237 2.237v.026c0 1.222.988 2.236 2.237 2.236 1.222 0 2.236-.988 2.236-2.236v-.052c-.026-1.223-1.014-2.21-2.236-2.21zM175.356 21.016h-6.866c-1.222 0-2.236.988-2.236 2.236 0 1.248.988 2.237 2.236 2.237h6.866c1.222 0 2.236-.989 2.236-2.237 0-1.248-1.014-2.236-2.236-2.236zM175.565 14.514c-1.249 0-2.237.988-2.237 2.236 0 1.222.988 2.237 2.237 2.237h.026c1.222 0 2.236-.989 2.236-2.237-.052-1.248-1.04-2.236-2.262-2.236z"/>
    <path fill="#005CA7" d="M148.778 27.803c-1.249 0-2.237.988-2.237 2.236 0 1.223.988 2.237 2.237 2.237h.026c1.222 0 2.236-.989 2.236-2.237-.052-1.248-1.04-2.236-2.262-2.236z"/>
    <path fill="#1CCAD8" d="M155.358 27.725c-1.223 0-2.237.988-2.237 2.236v6.866c0 1.222.988 2.236 2.237 2.236 1.248 0 2.236-.988 2.236-2.236V29.96c0-1.248-1.014-2.236-2.236-2.236z"/>
    <path fill="#005CA7" d="M155.463 21.197h-6.865c-1.222 0-2.237.989-2.237 2.237 0 1.248.989 2.236 2.237 2.236h6.865c1.223 0 2.237-.988 2.237-2.236 0-1.248-1.014-2.237-2.237-2.237zM161.938 20.911c-1.223 0-2.237.988-2.237 2.237v6.865c0 1.222.988 2.237 2.237 2.237 1.248 0 2.236-.989 2.236-2.237v-6.865c0-1.223-.988-2.237-2.236-2.237z"/>
</svg>
